<svg xmlns="http://www.w3.org/2000/svg" width="400" height="300" viewBox="0 0 400 300">
  <defs><linearGradient id="bg" x1="0" y1="0" x2="1" y2="1"><stop offset="0%" stop-color="#26321b"/><stop offset="100%" stop-color="#b0c56d"/></linearGradient></defs>
  <rect width="400" height="300" fill="url(#bg)"/><rect x="26" y="28" width="222" height="244" rx="18" fill="#fbfcf5"/><rect x="26" y="28" width="222" height="10" rx="5" fill="#93af3d"/>
  <text x="44" y="58" fill="#6f8426" font-family="Arial, Helvetica, sans-serif" font-size="9" letter-spacing="1.4">EJ DENTAL EDUCATION</text>
  <text x="44" y="96" fill="#27301b" font-family="Georgia, serif" font-size="22" font-weight="700"><tspan x="44" dy="0">Academic</tspan><tspan x="44" dy="26">Performance</tspan><tspan x="44" dy="26">Lecture</tspan><tspan x="44" dy="26">Modes</tspan></text>
  <text x="44" y="236" fill="#27301b" font-family="Arial, Helvetica, sans-serif" font-size="12">2021 • live / audio / video</text>
  <g transform="translate(270 74)"><rect x="0" y="0" width="104" height="64" rx="10" fill="#eef3d6"/><rect x="12" y="10" width="80" height="38" rx="8" fill="#dce7ae"/><rect x="18" y="56" width="68" height="6" rx="3" fill="#4b6326"/><circle cx="20" cy="102" r="16" fill="#eef3d6"/><circle cx="20" cy="102" r="4" fill="#4b6326"/><circle cx="54" cy="102" r="16" fill="#eef3d6"/><path d="M48 95 L61 102 L48 109 Z" fill="#4b6326"/><circle cx="88" cy="102" r="16" fill="#eef3d6"/><path d="M81 102 L95 102" stroke="#4b6326" stroke-width="4" stroke-linecap="round"/><path d="M88 95 L88 109" stroke="#4b6326" stroke-width="4" stroke-linecap="round"/></g>
</svg>
