<svg xmlns="http://www.w3.org/2000/svg" width="400" height="300" viewBox="0 0 400 300">
  <defs><linearGradient id="bg" x1="0" y1="0" x2="1" y2="1"><stop offset="0%" stop-color="#3b1f2b"/><stop offset="100%" stop-color="#c98d85"/></linearGradient></defs>
  <rect width="400" height="300" fill="url(#bg)"/><rect x="26" y="28" width="222" height="244" rx="18" fill="#fff7f5"/><rect x="26" y="28" width="222" height="10" rx="5" fill="#d47b63"/>
  <text x="44" y="58" fill="#a85e48" font-family="Arial, Helvetica, sans-serif" font-size="10" letter-spacing="1.5">J PROSTHODONTICS</text>
  <text x="44" y="96" fill="#37212a" font-family="Georgia, serif" font-size="24" font-weight="700"><tspan x="44" dy="0">Acrylic</tspan><tspan x="44" dy="28">vs Metal</tspan><tspan x="44" dy="28">Palatal Base</tspan><tspan x="44" dy="28">Dentures</tspan></text>
  <text x="44" y="238" fill="#37212a" font-family="Arial, Helvetica, sans-serif" font-size="12">2025 • crossover trial</text>
  <g transform="translate(270 84)"><ellipse cx="66" cy="66" rx="64" ry="52" fill="#fff1ed"/><path d="M28 81 C38 46 66 26 101 31 C127 34 145 47 158 63 C136 59 118 62 100 74 C80 86 70 101 59 113 C46 111 33 100 28 81 Z" fill="#d47b63"/><path d="M47 88 C58 62 77 50 105 51 C121 52 136 58 150 70 C135 73 118 81 104 95 C90 108 77 116 58 116 C51 108 47 99 47 88 Z" fill="#9ca7b8"/></g>
</svg>
