<svg xmlns="http://www.w3.org/2000/svg" width="400" height="300" viewBox="0 0 400 300">
  <defs><linearGradient id="bg" x1="0" y1="0" x2="1" y2="1"><stop offset="0%" stop-color="#3c2036"/><stop offset="100%" stop-color="#b66ca0"/></linearGradient></defs>
  <rect width="400" height="300" fill="url(#bg)"/><rect x="26" y="28" width="222" height="244" rx="18" fill="#fff8fd"/><rect x="26" y="28" width="222" height="10" rx="5" fill="#cb6aad"/>
  <text x="44" y="58" fill="#a14d88" font-family="Arial, Helvetica, sans-serif" font-size="9" letter-spacing="1.4">J OCC HEALTH</text>
  <text x="44" y="96" fill="#341c31" font-family="Georgia, serif" font-size="22" font-weight="700"><tspan x="44" dy="0">Clinical</tspan><tspan x="44" dy="26">Training</tspan><tspan x="44" dy="26">Stress</tspan><tspan x="44" dy="26">Study</tspan></text>
  <text x="44" y="236" fill="#341c31" font-family="Arial, Helvetica, sans-serif" font-size="12">2024 • cross-sectional</text>
  <g transform="translate(274 74)"><circle cx="60" cy="60" r="56" fill="#fdf0f8"/><path d="M60 18 L68 42 L92 42 L72 56 L80 80 L60 65 L40 80 L48 56 L28 42 L52 42 Z" fill="#cb6aad"/><path d="M26 112 C44 95 77 95 95 112" fill="none" stroke="#7a3e67" stroke-width="8" stroke-linecap="round"/></g>
</svg>
