<svg xmlns="http://www.w3.org/2000/svg" width="400" height="300" viewBox="0 0 400 300">
  <defs><linearGradient id="bg" x1="0" y1="0" x2="1" y2="1"><stop offset="0%" stop-color="#0d2f38"/><stop offset="100%" stop-color="#58c0cf"/></linearGradient></defs>
  <rect width="400" height="300" fill="url(#bg)"/><rect x="26" y="28" width="222" height="244" rx="18" fill="#f5fcfd"/><rect x="26" y="28" width="222" height="10" rx="5" fill="#2cbcc8"/>
  <text x="44" y="58" fill="#2b7f87" font-family="Arial, Helvetica, sans-serif" font-size="8.5" letter-spacing="1.2">EUR J PROSTHODONTICS</text>
  <text x="44" y="96" fill="#143039" font-family="Georgia, serif" font-size="23" font-weight="700"><tspan x="44" dy="0">Digital</tspan><tspan x="44" dy="28">Impressions</tspan><tspan x="44" dy="28">for Palatal</tspan><tspan x="44" dy="28">Defects</tspan></text>
  <text x="44" y="236" fill="#143039" font-family="Arial, Helvetica, sans-serif" font-size="12">2024 • in-vitro study</text>
  <g transform="translate(274 62)"><rect x="16" y="20" width="96" height="118" rx="12" fill="#e7f8fa"/><path d="M33 54 C40 31 61 18 85 18 C111 18 129 31 138 55 C121 48 103 48 85 53 C68 57 52 67 40 82 C31 74 29 66 33 54 Z" fill="#2cbcc8"/><path d="M45 84 C58 69 70 60 88 58 C107 56 122 62 136 74 C125 89 113 100 96 107 C78 115 60 115 46 108 C42 100 42 92 45 84 Z" fill="#91dbe2"/></g>
</svg>
