<svg xmlns="http://www.w3.org/2000/svg" width="1200" height="800" viewBox="0 0 1200 800">
  <defs><linearGradient id="bg" x1="0" y1="0" x2="1" y2="1"><stop offset="0%" stop-color="#123227"/><stop offset="100%" stop-color="#72b89a"/></linearGradient></defs>
  <rect width="1200" height="800" fill="url(#bg)"/><rect x="80" y="86" width="708" height="626" rx="34" fill="#f6fcf8"/><rect x="80" y="86" width="708" height="14" rx="7" fill="#4cb17f"/>
  <text x="132" y="152" fill="#378863" font-family="Arial, Helvetica, sans-serif" font-size="28" letter-spacing="3">EUROPEAN JOURNAL OF DENTAL EDUCATION</text>
  <text x="132" y="220" fill="#163126" font-family="Georgia, serif" font-size="50" font-weight="700"><tspan x="132" dy="0">Performance of Dental</tspan><tspan x="132" dy="62">Students in Prosthodontics</tspan><tspan x="132" dy="62">Laboratory</tspan></text>
  <text x="132" y="450" fill="#4a6f5d" font-family="Arial, Helvetica, sans-serif" font-size="28">Randomised trial comparing written instruction, video-recorded, and live demonstration</text>
  <text x="132" y="610" fill="#163126" font-family="Arial, Helvetica, sans-serif" font-size="24">2025</text>
  <g transform="translate(846 154)">
    <rect x="0" y="0" width="324" height="228" rx="24" fill="#e8f7ef"/>
    <rect x="32" y="28" width="260" height="148" rx="14" fill="#bfe6d0"/>
    <polygon points="142,82 142,120 180,101" fill="#247650"/>
    <rect x="70" y="216" width="184" height="24" rx="12" fill="#247650"/>
    <rect x="98" y="248" width="128" height="18" rx="9" fill="#8dc9a8"/>
    <g transform="translate(36 300)">
      <rect x="0" y="0" width="86" height="118" rx="16" fill="#f4fbf7"/>
      <rect x="119" y="0" width="86" height="118" rx="16" fill="#f4fbf7"/>
      <rect x="238" y="0" width="86" height="118" rx="16" fill="#f4fbf7"/>
      <path d="M20 34 L66 34" stroke="#247650" stroke-width="8" stroke-linecap="round"/><path d="M20 58 L56 58" stroke="#8dc9a8" stroke-width="8" stroke-linecap="round"/>
      <polygon points="148,30 148,62 176,46" fill="#247650"/><path d="M134 84 L188 84" stroke="#8dc9a8" stroke-width="8" stroke-linecap="round"/>
      <circle cx="281" cy="42" r="18" fill="#247650"/><path d="M261 84 L302 84" stroke="#8dc9a8" stroke-width="8" stroke-linecap="round"/>
    </g>
  </g>
</svg>
